<svg width="332" height="26" viewBox="0 0 332 26" fill="none" xmlns="http://www.w3.org/2000/svg">
<path d="M76.6933 0.5L87.351 6.65327V18.9598L76.6933 25.1131L66.0355 18.9598V6.65327L76.6933 0.5Z" fill="#065E7C"/>
<path d="M101.95 20.5H98.953V8.32721C98.953 7.47987 99.1184 6.76686 99.449 6.18819C99.7866 5.60263 100.258 5.16174 100.865 4.86551C101.478 4.5624 102.205 4.41084 103.045 4.41084C103.321 4.41084 103.586 4.43151 103.841 4.47284C104.096 4.50729 104.344 4.55206 104.585 4.60718L104.554 6.84953C104.423 6.81509 104.285 6.79098 104.14 6.7772C103.996 6.76342 103.827 6.75653 103.634 6.75653C103.276 6.75653 102.969 6.81853 102.714 6.94253C102.466 7.05964 102.277 7.23531 102.146 7.46954C102.015 7.70376 101.95 7.98965 101.95 8.32721V20.5ZM104.182 9.31922V11.4272H97.2893V9.31922H104.182ZM105.267 15.0233V14.8063C105.267 13.9865 105.384 13.2322 105.618 12.5433C105.852 11.8475 106.193 11.2447 106.641 10.7349C107.089 10.2251 107.64 9.82901 108.294 9.54656C108.949 9.25722 109.7 9.11255 110.547 9.11255C111.394 9.11255 112.149 9.25722 112.81 9.54656C113.471 9.82901 114.026 10.2251 114.474 10.7349C114.929 11.2447 115.273 11.8475 115.507 12.5433C115.741 13.2322 115.859 13.9865 115.859 14.8063V15.0233C115.859 15.8362 115.741 16.5905 115.507 17.2863C115.273 17.9752 114.929 18.578 114.474 19.0947C114.026 19.6044 113.475 20.0006 112.82 20.283C112.166 20.5654 111.415 20.7067 110.568 20.7067C109.72 20.7067 108.966 20.5654 108.305 20.283C107.65 20.0006 107.096 19.6044 106.641 19.0947C106.193 18.578 105.852 17.9752 105.618 17.2863C105.384 16.5905 105.267 15.8362 105.267 15.0233ZM108.243 14.8063V15.0233C108.243 15.4917 108.284 15.9292 108.367 16.3356C108.449 16.7421 108.58 17.1003 108.759 17.4103C108.945 17.7134 109.187 17.9511 109.483 18.1233C109.779 18.2955 110.141 18.3816 110.568 18.3816C110.981 18.3816 111.336 18.2955 111.632 18.1233C111.928 17.9511 112.166 17.7134 112.345 17.4103C112.524 17.1003 112.655 16.7421 112.738 16.3356C112.827 15.9292 112.872 15.4917 112.872 15.0233V14.8063C112.872 14.3516 112.827 13.9245 112.738 13.5249C112.655 13.1185 112.521 12.7603 112.335 12.4503C112.156 12.1334 111.918 11.8854 111.622 11.7062C111.326 11.5271 110.967 11.4376 110.547 11.4376C110.127 11.4376 109.769 11.5271 109.472 11.7062C109.183 11.8854 108.945 12.1334 108.759 12.4503C108.58 12.7603 108.449 13.1185 108.367 13.5249C108.284 13.9245 108.243 14.3516 108.243 14.8063ZM117.212 15.0233V14.8063C117.212 13.9865 117.329 13.2322 117.564 12.5433C117.798 11.8475 118.139 11.2447 118.587 10.7349C119.034 10.2251 119.585 9.82901 120.24 9.54656C120.894 9.25722 121.645 9.11255 122.493 9.11255C123.34 9.11255 124.094 9.25722 124.756 9.54656C125.417 9.82901 125.972 10.2251 126.419 10.7349C126.874 11.2447 127.218 11.8475 127.453 12.5433C127.687 13.2322 127.804 13.9865 127.804 14.8063V15.0233C127.804 15.8362 127.687 16.5905 127.453 17.2863C127.218 17.9752 126.874 18.578 126.419 19.0947C125.972 19.6044 125.42 20.0006 124.766 20.283C124.111 20.5654 123.361 20.7067 122.513 20.7067C121.666 20.7067 120.912 20.5654 120.25 20.283C119.596 20.0006 119.041 19.6044 118.587 19.0947C118.139 18.578 117.798 17.9752 117.564 17.2863C117.329 16.5905 117.212 15.8362 117.212 15.0233ZM120.188 14.8063V15.0233C120.188 15.4917 120.23 15.9292 120.312 16.3356C120.395 16.7421 120.526 17.1003 120.705 17.4103C120.891 17.7134 121.132 17.9511 121.428 18.1233C121.724 18.2955 122.086 18.3816 122.513 18.3816C122.927 18.3816 123.281 18.2955 123.578 18.1233C123.874 17.9511 124.111 17.7134 124.291 17.4103C124.47 17.1003 124.601 16.7421 124.683 16.3356C124.773 15.9292 124.818 15.4917 124.818 15.0233V14.8063C124.818 14.3516 124.773 13.9245 124.683 13.5249C124.601 13.1185 124.466 12.7603 124.28 12.4503C124.101 12.1334 123.863 11.8854 123.567 11.7062C123.271 11.5271 122.913 11.4376 122.493 11.4376C122.072 11.4376 121.714 11.5271 121.418 11.7062C121.129 11.8854 120.891 12.1334 120.705 12.4503C120.526 12.7603 120.395 13.1185 120.312 13.5249C120.23 13.9245 120.188 14.3516 120.188 14.8063ZM136.236 18.0613V4.62784H139.233V20.5H136.536L136.236 18.0613ZM129.168 15.0439V14.8269C129.168 13.9727 129.264 13.1977 129.457 12.5019C129.65 11.7992 129.933 11.1965 130.305 10.6936C130.677 10.1907 131.135 9.80145 131.679 9.52589C132.223 9.25033 132.843 9.11255 133.539 9.11255C134.193 9.11255 134.765 9.25033 135.254 9.52589C135.75 9.80145 136.171 10.1941 136.515 10.7039C136.866 11.2068 137.149 11.8027 137.362 12.4916C137.576 13.1736 137.731 13.921 137.827 14.7339V15.2093C137.731 15.9877 137.576 16.7111 137.362 17.3793C137.149 18.0475 136.866 18.6331 136.515 19.136C136.171 19.632 135.75 20.0178 135.254 20.2933C134.758 20.5689 134.18 20.7067 133.518 20.7067C132.823 20.7067 132.203 20.5654 131.658 20.283C131.121 20.0006 130.666 19.6044 130.294 19.0947C129.929 18.5849 129.65 17.9855 129.457 17.2966C129.264 16.6077 129.168 15.8568 129.168 15.0439ZM132.144 14.8269V15.0439C132.144 15.5055 132.178 15.9361 132.247 16.3356C132.323 16.7352 132.444 17.09 132.609 17.4C132.781 17.7031 133.002 17.9408 133.27 18.113C133.546 18.2783 133.88 18.361 134.273 18.361C134.782 18.361 135.203 18.2473 135.533 18.02C135.864 17.7858 136.115 17.4654 136.288 17.059C136.467 16.6525 136.57 16.1841 136.598 15.6536V14.2999C136.577 13.8659 136.515 13.4767 136.412 13.1323C136.315 12.7809 136.171 12.4813 135.978 12.2333C135.792 11.9852 135.557 11.7924 135.275 11.6546C134.999 11.5168 134.672 11.4479 134.293 11.4479C133.908 11.4479 133.577 11.5375 133.301 11.7166C133.026 11.8888 132.802 12.1265 132.63 12.4296C132.464 12.7327 132.34 13.0909 132.258 13.5043C132.182 13.9107 132.144 14.3516 132.144 14.8269ZM151.974 20.7067C151.106 20.7067 150.327 20.5689 149.639 20.2933C148.95 20.0109 148.364 19.6217 147.882 19.1257C147.406 18.6296 147.041 18.0544 146.786 17.4C146.532 16.7386 146.404 16.036 146.404 15.2919V14.8786C146.404 14.0313 146.525 13.2563 146.766 12.5536C147.007 11.8509 147.351 11.2412 147.799 10.7246C148.254 10.2079 148.805 9.81178 149.453 9.53622C150.1 9.25378 150.83 9.11255 151.643 9.11255C152.435 9.11255 153.138 9.24344 153.751 9.50522C154.364 9.767 154.878 10.139 155.291 10.6212C155.711 11.1035 156.028 11.6821 156.242 12.3573C156.455 13.0255 156.562 13.7695 156.562 14.5893V15.8293H147.675V13.8453H153.638V13.6179C153.638 13.2046 153.562 12.836 153.41 12.5123C153.266 12.1816 153.045 11.9198 152.749 11.7269C152.453 11.534 152.074 11.4376 151.612 11.4376C151.22 11.4376 150.882 11.5237 150.6 11.6959C150.317 11.8681 150.086 12.1093 149.907 12.4193C149.735 12.7293 149.604 13.0944 149.515 13.5146C149.432 13.9279 149.391 14.3826 149.391 14.8786V15.2919C149.391 15.7397 149.453 16.1531 149.577 16.532C149.707 16.9109 149.89 17.2381 150.124 17.5136C150.365 17.7892 150.655 18.0028 150.992 18.1543C151.337 18.3059 151.726 18.3816 152.16 18.3816C152.697 18.3816 153.197 18.2783 153.658 18.0716C154.127 17.8581 154.53 17.5377 154.867 17.1106L156.314 18.6813C156.08 19.0189 155.759 19.3427 155.353 19.6527C154.953 19.9627 154.471 20.2176 153.906 20.4173C153.341 20.6102 152.697 20.7067 151.974 20.7067ZM160.654 9.31922L162.504 12.7189L164.405 9.31922H167.577L164.415 14.7856L167.722 20.5H164.539L162.524 16.904L160.509 20.5H157.327L160.633 14.7856L157.471 9.31922H160.654ZM172 11.4686V24.7987H169.024V9.31922H171.783L172 11.4686ZM179.078 14.7856V15.0026C179.078 15.8155 178.982 16.5698 178.789 17.2656C178.603 17.9614 178.328 18.5676 177.962 19.0843C177.597 19.5941 177.143 19.9937 176.598 20.283C176.061 20.5654 175.441 20.7067 174.738 20.7067C174.056 20.7067 173.464 20.5689 172.961 20.2933C172.458 20.0178 172.035 19.632 171.69 19.136C171.353 18.6331 171.08 18.051 170.874 17.3896C170.667 16.7283 170.509 16.0187 170.398 15.2609V14.6926C170.509 13.8797 170.667 13.1357 170.874 12.4606C171.08 11.7786 171.353 11.1896 171.69 10.6936C172.035 10.1907 172.455 9.80145 172.951 9.52589C173.454 9.25033 174.043 9.11255 174.718 9.11255C175.427 9.11255 176.051 9.24689 176.588 9.51556C177.132 9.78423 177.587 10.17 177.952 10.6729C178.324 11.1758 178.603 11.7751 178.789 12.4709C178.982 13.1667 179.078 13.9383 179.078 14.7856ZM176.092 15.0026V14.7856C176.092 14.3103 176.051 13.8728 175.968 13.4733C175.892 13.0668 175.768 12.712 175.596 12.4089C175.431 12.1058 175.21 11.8716 174.935 11.7062C174.666 11.534 174.339 11.4479 173.953 11.4479C173.547 11.4479 173.199 11.5134 172.909 11.6442C172.627 11.7751 172.396 11.9646 172.217 12.2126C172.038 12.4606 171.904 12.7568 171.814 13.1013C171.725 13.4457 171.669 13.8349 171.649 14.2689V15.7053C171.683 16.2151 171.78 16.6732 171.938 17.0796C172.097 17.4792 172.341 17.7961 172.672 18.0303C173.002 18.2645 173.436 18.3816 173.974 18.3816C174.366 18.3816 174.697 18.2955 174.966 18.1233C175.234 17.9442 175.451 17.6996 175.617 17.3896C175.789 17.0796 175.91 16.7214 175.978 16.315C176.054 15.9085 176.092 15.4711 176.092 15.0026ZM184.07 4.62784V20.5H181.083V4.62784H184.07ZM186.054 15.0233V14.8063C186.054 13.9865 186.171 13.2322 186.405 12.5433C186.639 11.8475 186.98 11.2447 187.428 10.7349C187.876 10.2251 188.427 9.82901 189.081 9.54656C189.736 9.25722 190.487 9.11255 191.334 9.11255C192.181 9.11255 192.936 9.25722 193.597 9.54656C194.258 9.82901 194.813 10.2251 195.261 10.7349C195.715 11.2447 196.06 11.8475 196.294 12.5433C196.528 13.2322 196.645 13.9865 196.645 14.8063V15.0233C196.645 15.8362 196.528 16.5905 196.294 17.2863C196.06 17.9752 195.715 18.578 195.261 19.0947C194.813 19.6044 194.262 20.0006 193.607 20.283C192.953 20.5654 192.202 20.7067 191.355 20.7067C190.507 20.7067 189.753 20.5654 189.092 20.283C188.437 20.0006 187.883 19.6044 187.428 19.0947C186.98 18.578 186.639 17.9752 186.405 17.2863C186.171 16.5905 186.054 15.8362 186.054 15.0233ZM189.03 14.8063V15.0233C189.03 15.4917 189.071 15.9292 189.154 16.3356C189.236 16.7421 189.367 17.1003 189.546 17.4103C189.732 17.7134 189.973 17.9511 190.27 18.1233C190.566 18.2955 190.927 18.3816 191.355 18.3816C191.768 18.3816 192.123 18.2955 192.419 18.1233C192.715 17.9511 192.953 17.7134 193.132 17.4103C193.311 17.1003 193.442 16.7421 193.525 16.3356C193.614 15.9292 193.659 15.4917 193.659 15.0233V14.8063C193.659 14.3516 193.614 13.9245 193.525 13.5249C193.442 13.1185 193.308 12.7603 193.122 12.4503C192.943 12.1334 192.705 11.8854 192.409 11.7062C192.112 11.5271 191.754 11.4376 191.334 11.4376C190.914 11.4376 190.555 11.5271 190.259 11.7062C189.97 11.8854 189.732 12.1334 189.546 12.4503C189.367 12.7603 189.236 13.1185 189.154 13.5249C189.071 13.9245 189.03 14.3516 189.03 14.8063ZM201.45 11.7579V20.5H198.474V9.31922H201.275L201.45 11.7579ZM204.819 9.24689L204.767 12.0059C204.623 11.9852 204.447 11.968 204.24 11.9542C204.041 11.9336 203.858 11.9232 203.693 11.9232C203.272 11.9232 202.907 11.9784 202.597 12.0886C202.294 12.1919 202.039 12.3469 201.833 12.5536C201.633 12.7603 201.481 13.0117 201.378 13.3079C201.282 13.6042 201.226 13.9417 201.213 14.3206L200.613 14.1346C200.613 13.4113 200.686 12.7465 200.83 12.1403C200.975 11.5271 201.185 10.9932 201.461 10.5386C201.743 10.0839 202.088 9.73256 202.494 9.48456C202.9 9.23656 203.365 9.11255 203.889 9.11255C204.054 9.11255 204.223 9.12633 204.395 9.15389C204.568 9.17455 204.709 9.20555 204.819 9.24689ZM211.164 20.7067C210.296 20.7067 209.517 20.5689 208.828 20.2933C208.14 20.0109 207.554 19.6217 207.072 19.1257C206.596 18.6296 206.231 18.0544 205.976 17.4C205.722 16.7386 205.594 16.036 205.594 15.2919V14.8786C205.594 14.0313 205.715 13.2563 205.956 12.5536C206.197 11.8509 206.541 11.2412 206.989 10.7246C207.444 10.2079 207.995 9.81178 208.642 9.53622C209.29 9.25378 210.02 9.11255 210.833 9.11255C211.625 9.11255 212.328 9.24344 212.941 9.50522C213.554 9.767 214.067 10.139 214.481 10.6212C214.901 11.1035 215.218 11.6821 215.432 12.3573C215.645 13.0255 215.752 13.7695 215.752 14.5893V15.8293H206.865V13.8453H212.827V13.6179C212.827 13.2046 212.752 12.836 212.6 12.5123C212.455 12.1816 212.235 11.9198 211.939 11.7269C211.643 11.534 211.264 11.4376 210.802 11.4376C210.409 11.4376 210.072 11.5237 209.789 11.6959C209.507 11.8681 209.276 12.1093 209.097 12.4193C208.925 12.7293 208.794 13.0944 208.704 13.5146C208.622 13.9279 208.58 14.3826 208.58 14.8786V15.2919C208.58 15.7397 208.642 16.1531 208.766 16.532C208.897 16.9109 209.08 17.2381 209.314 17.5136C209.555 17.7892 209.845 18.0028 210.182 18.1543C210.527 18.3059 210.916 18.3816 211.35 18.3816C211.887 18.3816 212.387 18.2783 212.848 18.0716C213.317 17.8581 213.72 17.5377 214.057 17.1106L215.504 18.6813C215.27 19.0189 214.949 19.3427 214.543 19.6527C214.143 19.9627 213.661 20.2176 213.096 20.4173C212.531 20.6102 211.887 20.7067 211.164 20.7067ZM220.423 11.7579V20.5H217.447V9.31922H220.247L220.423 11.7579ZM223.791 9.24689L223.74 12.0059C223.595 11.9852 223.419 11.968 223.213 11.9542C223.013 11.9336 222.83 11.9232 222.665 11.9232C222.245 11.9232 221.88 11.9784 221.57 12.0886C221.266 12.1919 221.012 12.3469 220.805 12.5536C220.605 12.7603 220.454 13.0117 220.35 13.3079C220.254 13.6042 220.199 13.9417 220.185 14.3206L219.586 14.1346C219.586 13.4113 219.658 12.7465 219.803 12.1403C219.947 11.5271 220.157 10.9932 220.433 10.5386C220.715 10.0839 221.06 9.73256 221.466 9.48456C221.873 9.23656 222.338 9.11255 222.861 9.11255C223.027 9.11255 223.195 9.12633 223.368 9.15389C223.54 9.17455 223.681 9.20555 223.791 9.24689Z" fill="white"/>
<path d="M237.564 16.416V13.1523C237.564 12.9023 237.514 12.6855 237.412 12.502C237.314 12.3145 237.166 12.1699 236.967 12.0684C236.768 11.9668 236.521 11.916 236.229 11.916C235.955 11.916 235.715 11.9629 235.508 12.0566C235.305 12.1504 235.145 12.2734 235.027 12.4258C234.914 12.5781 234.857 12.7422 234.857 12.918H233.773C233.773 12.6914 233.832 12.4668 233.949 12.2441C234.066 12.0215 234.234 11.8203 234.453 11.6406C234.676 11.457 234.941 11.3125 235.25 11.207C235.562 11.0977 235.91 11.043 236.293 11.043C236.754 11.043 237.16 11.1211 237.512 11.2773C237.867 11.4336 238.145 11.6699 238.344 11.9863C238.547 12.2988 238.648 12.6914 238.648 13.1641V16.1172C238.648 16.3281 238.666 16.5527 238.701 16.791C238.74 17.0293 238.797 17.2344 238.871 17.4062V17.5H237.74C237.686 17.375 237.643 17.209 237.611 17.002C237.58 16.791 237.564 16.5957 237.564 16.416ZM237.752 13.6562L237.764 14.418H236.668C236.359 14.418 236.084 14.4434 235.842 14.4941C235.6 14.541 235.396 14.6133 235.232 14.7109C235.068 14.8086 234.943 14.9316 234.857 15.0801C234.771 15.2246 234.729 15.3945 234.729 15.5898C234.729 15.7891 234.773 15.9707 234.863 16.1348C234.953 16.2988 235.088 16.4297 235.268 16.5273C235.451 16.6211 235.676 16.668 235.941 16.668C236.273 16.668 236.566 16.5977 236.82 16.457C237.074 16.3164 237.275 16.1445 237.424 15.9414C237.576 15.7383 237.658 15.541 237.67 15.3496L238.133 15.8711C238.105 16.0352 238.031 16.2168 237.91 16.416C237.789 16.6152 237.627 16.8066 237.424 16.9902C237.225 17.1699 236.986 17.3203 236.709 17.4414C236.436 17.5586 236.127 17.6172 235.783 17.6172C235.354 17.6172 234.977 17.5332 234.652 17.3652C234.332 17.1973 234.082 16.9727 233.902 16.6914C233.727 16.4062 233.639 16.0879 233.639 15.7363C233.639 15.3965 233.705 15.0977 233.838 14.8398C233.971 14.5781 234.162 14.3613 234.412 14.1895C234.662 14.0137 234.963 13.8809 235.314 13.791C235.666 13.7012 236.059 13.6562 236.492 13.6562H237.752ZM244.35 16.2695V8.5H245.439V17.5H244.443L244.35 16.2695ZM240.084 14.4004V14.2773C240.084 13.793 240.143 13.3535 240.26 12.959C240.381 12.5605 240.551 12.2188 240.77 11.9336C240.992 11.6484 241.256 11.4297 241.561 11.2773C241.869 11.1211 242.213 11.043 242.592 11.043C242.99 11.043 243.338 11.1133 243.635 11.2539C243.936 11.3906 244.189 11.5918 244.396 11.8574C244.607 12.1191 244.773 12.4355 244.895 12.8066C245.016 13.1777 245.1 13.5977 245.146 14.0664V14.6055C245.104 15.0703 245.02 15.4883 244.895 15.8594C244.773 16.2305 244.607 16.5469 244.396 16.8086C244.189 17.0703 243.936 17.2715 243.635 17.4121C243.334 17.5488 242.982 17.6172 242.58 17.6172C242.209 17.6172 241.869 17.5371 241.561 17.377C241.256 17.2168 240.992 16.9922 240.77 16.7031C240.551 16.4141 240.381 16.0742 240.26 15.6836C240.143 15.2891 240.084 14.8613 240.084 14.4004ZM241.174 14.2773V14.4004C241.174 14.7168 241.205 15.0137 241.268 15.291C241.334 15.5684 241.436 15.8125 241.572 16.0234C241.709 16.2344 241.883 16.4004 242.094 16.5215C242.305 16.6387 242.557 16.6973 242.85 16.6973C243.209 16.6973 243.504 16.6211 243.734 16.4688C243.969 16.3164 244.156 16.1152 244.297 15.8652C244.438 15.6152 244.547 15.3438 244.625 15.0508V13.6387C244.578 13.4238 244.51 13.2168 244.42 13.0176C244.334 12.8145 244.221 12.6348 244.08 12.4785C243.943 12.3184 243.773 12.1914 243.57 12.0977C243.371 12.0039 243.135 11.957 242.861 11.957C242.564 11.957 242.309 12.0195 242.094 12.1445C241.883 12.2656 241.709 12.4336 241.572 12.6484C241.436 12.8594 241.334 13.1055 241.268 13.3867C241.205 13.6641 241.174 13.9609 241.174 14.2773ZM248.205 12.4199V17.5H247.115V11.1602H248.146L248.205 12.4199ZM247.982 14.0898L247.479 14.0723C247.482 13.6387 247.539 13.2383 247.648 12.8711C247.758 12.5 247.92 12.1777 248.135 11.9043C248.35 11.6309 248.617 11.4199 248.938 11.2715C249.258 11.1191 249.629 11.043 250.051 11.043C250.348 11.043 250.621 11.0859 250.871 11.1719C251.121 11.2539 251.338 11.3848 251.521 11.5645C251.705 11.7441 251.848 11.9746 251.949 12.2559C252.051 12.5371 252.102 12.877 252.102 13.2754V17.5H251.018V13.3281C251.018 12.9961 250.961 12.7305 250.848 12.5312C250.738 12.332 250.582 12.1875 250.379 12.0977C250.176 12.0039 249.938 11.957 249.664 11.957C249.344 11.957 249.076 12.0137 248.861 12.127C248.646 12.2402 248.475 12.3965 248.346 12.5957C248.217 12.7949 248.123 13.0234 248.064 13.2812C248.01 13.5352 247.982 13.8047 247.982 14.0898ZM252.09 13.4922L251.363 13.7148C251.367 13.3672 251.424 13.0332 251.533 12.7129C251.646 12.3926 251.809 12.1074 252.02 11.8574C252.234 11.6074 252.498 11.4102 252.811 11.2656C253.123 11.1172 253.48 11.043 253.883 11.043C254.223 11.043 254.523 11.0879 254.785 11.1777C255.051 11.2676 255.273 11.4062 255.453 11.5938C255.637 11.7773 255.775 12.0137 255.869 12.3027C255.963 12.5918 256.01 12.9355 256.01 13.334V17.5H254.92V13.3223C254.92 12.9668 254.863 12.6914 254.75 12.4961C254.641 12.2969 254.484 12.1582 254.281 12.0801C254.082 11.998 253.844 11.957 253.566 11.957C253.328 11.957 253.117 11.998 252.934 12.0801C252.75 12.1621 252.596 12.2754 252.471 12.4199C252.346 12.5605 252.25 12.7227 252.184 12.9062C252.121 13.0898 252.09 13.2852 252.09 13.4922ZM258.828 11.1602V17.5H257.738V11.1602H258.828ZM257.656 9.47852C257.656 9.30273 257.709 9.1543 257.814 9.0332C257.924 8.91211 258.084 8.85156 258.295 8.85156C258.502 8.85156 258.66 8.91211 258.77 9.0332C258.883 9.1543 258.939 9.30273 258.939 9.47852C258.939 9.64648 258.883 9.79102 258.77 9.91211C258.66 10.0293 258.502 10.0879 258.295 10.0879C258.084 10.0879 257.924 10.0293 257.814 9.91211C257.709 9.79102 257.656 9.64648 257.656 9.47852ZM261.652 12.5137V17.5H260.568V11.1602H261.594L261.652 12.5137ZM261.395 14.0898L260.943 14.0723C260.947 13.6387 261.012 13.2383 261.137 12.8711C261.262 12.5 261.438 12.1777 261.664 11.9043C261.891 11.6309 262.16 11.4199 262.473 11.2715C262.789 11.1191 263.139 11.043 263.521 11.043C263.834 11.043 264.115 11.0859 264.365 11.1719C264.615 11.2539 264.828 11.3867 265.004 11.5703C265.184 11.7539 265.32 11.9922 265.414 12.2852C265.508 12.5742 265.555 12.9277 265.555 13.3457V17.5H264.465V13.334C264.465 13.002 264.416 12.7363 264.318 12.5371C264.221 12.334 264.078 12.1875 263.891 12.0977C263.703 12.0039 263.473 11.957 263.199 11.957C262.93 11.957 262.684 12.0137 262.461 12.127C262.242 12.2402 262.053 12.3965 261.893 12.5957C261.736 12.7949 261.613 13.0234 261.523 13.2812C261.438 13.5352 261.395 13.8047 261.395 14.0898Z" fill="#82F3FF"/>
</svg>
