<svg width="144" height="19" viewBox="0 0 144 19" fill="none" xmlns="http://www.w3.org/2000/svg">
<path d="M32.8063 14.3322H30.6452V5.55374C30.6452 4.94268 30.7645 4.4285 31.0029 4.01119C31.2464 3.58891 31.5867 3.27096 32.0238 3.05734C32.466 2.83875 32.9901 2.72945 33.5962 2.72945C33.7949 2.72945 33.9862 2.74435 34.17 2.77416C34.3538 2.799 34.5327 2.83129 34.7066 2.87104L34.6842 4.48811C34.5898 4.46327 34.4904 4.44589 34.3861 4.43595C34.2818 4.42601 34.1601 4.42105 34.021 4.42105C33.7626 4.42105 33.5416 4.46576 33.3578 4.55518C33.1789 4.63964 33.0423 4.76632 32.9479 4.93523C32.8535 5.10414 32.8063 5.31031 32.8063 5.55374V14.3322ZM34.4159 6.26913V7.78933H29.4455V6.26913H34.4159ZM35.1984 10.3826V10.2261C35.1984 9.63493 35.2828 9.09094 35.4518 8.59414C35.6207 8.09238 35.8666 7.65768 36.1895 7.29005C36.5124 6.92242 36.9099 6.63676 37.3818 6.43307C37.8538 6.22442 38.3953 6.12009 39.0063 6.12009C39.6174 6.12009 40.1614 6.22442 40.6383 6.43307C41.1152 6.63676 41.5152 6.92242 41.8381 7.29005C42.166 7.65768 42.4144 8.09238 42.5833 8.59414C42.7522 9.09094 42.8366 9.63493 42.8366 10.2261V10.3826C42.8366 10.9688 42.7522 11.5128 42.5833 12.0146C42.4144 12.5114 42.166 12.9461 41.8381 13.3187C41.5152 13.6863 41.1177 13.972 40.6458 14.1757C40.1738 14.3793 39.6323 14.4812 39.0212 14.4812C38.4102 14.4812 37.8662 14.3793 37.3893 14.1757C36.9173 13.972 36.5174 13.6863 36.1895 13.3187C35.8666 12.9461 35.6207 12.5114 35.4518 12.0146C35.2828 11.5128 35.1984 10.9688 35.1984 10.3826ZM37.3445 10.2261V10.3826C37.3445 10.7204 37.3744 11.0359 37.434 11.329C37.4936 11.6221 37.588 11.8805 37.7171 12.104C37.8513 12.3226 38.0252 12.494 38.2388 12.6182C38.4524 12.7424 38.7132 12.8045 39.0212 12.8045C39.3193 12.8045 39.5752 12.7424 39.7888 12.6182C40.0024 12.494 40.1738 12.3226 40.303 12.104C40.4321 11.8805 40.5265 11.6221 40.5862 11.329C40.6507 11.0359 40.683 10.7204 40.683 10.3826V10.2261C40.683 9.89824 40.6507 9.59022 40.5862 9.30208C40.5265 9.00897 40.4297 8.75063 40.2955 8.52708C40.1664 8.29855 39.995 8.1197 39.7813 7.99053C39.5677 7.86137 39.3094 7.79678 39.0063 7.79678C38.7033 7.79678 38.445 7.86137 38.2313 7.99053C38.0227 8.1197 37.8513 8.29855 37.7171 8.52708C37.588 8.75063 37.4936 9.00897 37.434 9.30208C37.3744 9.59022 37.3445 9.89824 37.3445 10.2261ZM43.8129 10.3826V10.2261C43.8129 9.63493 43.8973 9.09094 44.0662 8.59414C44.2351 8.09238 44.481 7.65768 44.804 7.29005C45.1269 6.92242 45.5243 6.63676 45.9963 6.43307C46.4682 6.22442 47.0097 6.12009 47.6208 6.12009C48.2319 6.12009 48.7759 6.22442 49.2528 6.43307C49.7297 6.63676 50.1296 6.92242 50.4525 7.29005C50.7804 7.65768 51.0288 8.09238 51.1977 8.59414C51.3667 9.09094 51.4511 9.63493 51.4511 10.2261V10.3826C51.4511 10.9688 51.3667 11.5128 51.1977 12.0146C51.0288 12.5114 50.7804 12.9461 50.4525 13.3187C50.1296 13.6863 49.7322 13.972 49.2602 14.1757C48.7883 14.3793 48.2468 14.4812 47.6357 14.4812C47.0246 14.4812 46.4807 14.3793 46.0037 14.1757C45.5318 13.972 45.1318 13.6863 44.804 13.3187C44.481 12.9461 44.2351 12.5114 44.0662 12.0146C43.8973 11.5128 43.8129 10.9688 43.8129 10.3826ZM45.959 10.2261V10.3826C45.959 10.7204 45.9888 11.0359 46.0484 11.329C46.1081 11.6221 46.2024 11.8805 46.3316 12.104C46.4657 12.3226 46.6396 12.494 46.8533 12.6182C47.0669 12.7424 47.3277 12.8045 47.6357 12.8045C47.9338 12.8045 48.1896 12.7424 48.4033 12.6182C48.6169 12.494 48.7883 12.3226 48.9174 12.104C49.0466 11.8805 49.141 11.6221 49.2006 11.329C49.2652 11.0359 49.2975 10.7204 49.2975 10.3826V10.2261C49.2975 9.89824 49.2652 9.59022 49.2006 9.30208C49.141 9.00897 49.0441 8.75063 48.91 8.52708C48.7808 8.29855 48.6094 8.1197 48.3958 7.99053C48.1822 7.86137 47.9238 7.79678 47.6208 7.79678C47.3178 7.79678 47.0594 7.86137 46.8458 7.99053C46.6371 8.1197 46.4657 8.29855 46.3316 8.52708C46.2024 8.75063 46.1081 9.00897 46.0484 9.30208C45.9888 9.59022 45.959 9.89824 45.959 10.2261ZM57.5319 12.5735V2.88594H59.693V14.3322H57.748L57.5319 12.5735ZM52.4348 10.3975V10.241C52.4348 9.625 52.5043 9.0661 52.6434 8.56434C52.7825 8.0576 52.9862 7.6229 53.2545 7.26024C53.5228 6.89758 53.8531 6.61689 54.2456 6.41817C54.6381 6.21945 55.0852 6.12009 55.587 6.12009C56.0589 6.12009 56.4712 6.21945 56.824 6.41817C57.1817 6.61689 57.4847 6.90006 57.7331 7.26769C57.9865 7.63036 58.1902 8.06009 58.3442 8.55688C58.4982 9.04871 58.61 9.58774 58.6795 10.174V10.5167C58.61 11.0781 58.4982 11.5998 58.3442 12.0817C58.1902 12.5636 57.9865 12.9858 57.7331 13.3485C57.4847 13.7062 57.1817 13.9844 56.824 14.1831C56.4663 14.3818 56.049 14.4812 55.572 14.4812C55.0703 14.4812 54.6232 14.3793 54.2307 14.1757C53.8432 13.972 53.5153 13.6863 53.247 13.3187C52.9837 12.9511 52.7825 12.5188 52.6434 12.022C52.5043 11.5252 52.4348 10.9837 52.4348 10.3975ZM54.5809 10.241V10.3975C54.5809 10.7304 54.6058 11.0409 54.6555 11.329C54.7101 11.6172 54.797 11.873 54.9163 12.0966C55.0405 12.3152 55.1994 12.4866 55.3932 12.6108C55.5919 12.73 55.8329 12.7896 56.116 12.7896C56.4837 12.7896 56.7867 12.7076 57.0252 12.5437C57.2636 12.3748 57.445 12.1438 57.5692 11.8507C57.6983 11.5575 57.7729 11.2197 57.7927 10.8372V9.86098C57.7778 9.54799 57.7331 9.2673 57.6586 9.01891C57.589 8.76554 57.4847 8.54943 57.3456 8.37058C57.2115 8.19174 57.0426 8.05263 56.8389 7.95327C56.6402 7.85392 56.4042 7.80424 56.1309 7.80424C55.8527 7.80424 55.6143 7.86882 55.4156 7.99799C55.2168 8.12219 55.0554 8.29358 54.9312 8.51217C54.8119 8.73076 54.7225 8.9891 54.6629 9.28718C54.6083 9.58029 54.5809 9.89824 54.5809 10.241ZM68.8812 14.4812C68.2553 14.4812 67.6939 14.3818 67.1971 14.1831C66.7003 13.9794 66.278 13.6987 65.9303 13.341C65.5875 12.9833 65.3242 12.5685 65.1404 12.0966C64.9565 11.6196 64.8646 11.1129 64.8646 10.5764V10.2783C64.8646 9.66723 64.9516 9.10833 65.1255 8.6016C65.2993 8.09486 65.5477 7.6552 65.8707 7.2826C66.1985 6.91 66.596 6.62434 67.063 6.42562C67.53 6.22194 68.0566 6.12009 68.6428 6.12009C69.2141 6.12009 69.7208 6.21448 70.163 6.40327C70.6051 6.59205 70.9752 6.86032 71.2733 7.20808C71.5764 7.55584 71.8049 7.97315 71.9589 8.46001C72.1129 8.9419 72.1899 9.47844 72.1899 10.0696V10.9639H65.7812V9.53309H70.081V9.36915C70.081 9.07107 70.0264 8.80528 69.9171 8.57179C69.8127 8.33332 69.6538 8.14454 69.4401 8.00544C69.2265 7.86634 68.9533 7.79678 68.6204 7.79678C68.3373 7.79678 68.0938 7.85888 67.8901 7.98308C67.6865 8.10728 67.52 8.28116 67.3909 8.50472C67.2667 8.72828 67.1723 8.99158 67.1077 9.29463C67.0481 9.59271 67.0183 9.92059 67.0183 10.2783V10.5764C67.0183 10.8993 67.063 11.1974 67.1524 11.4706C67.2468 11.7438 67.3784 11.9798 67.5473 12.1785C67.7212 12.3773 67.9299 12.5313 68.1733 12.6406C68.4217 12.7499 68.7024 12.8045 69.0154 12.8045C69.4029 12.8045 69.7631 12.73 70.0959 12.5809C70.4337 12.4269 70.7244 12.1959 70.9678 11.8879L72.0111 13.0206C71.8422 13.264 71.6111 13.4975 71.318 13.7211C71.0299 13.9447 70.6821 14.1285 70.2748 14.2725C69.8674 14.4116 69.4029 14.4812 68.8812 14.4812ZM75.1409 6.26913L76.4748 8.72083L77.846 6.26913H80.1337L77.8534 10.2112L80.238 14.3322H77.9428L76.4897 11.7389L75.0366 14.3322H72.7414L75.126 10.2112L72.8457 6.26913H75.1409ZM83.3231 7.81914V17.4322H81.177V6.26913H83.1667L83.3231 7.81914ZM88.4277 10.2112V10.3677C88.4277 10.9539 88.3582 11.4979 88.2191 11.9997C88.085 12.5015 87.8862 12.9386 87.6229 13.3112C87.3596 13.6789 87.0317 13.967 86.6393 14.1757C86.2518 14.3793 85.8047 14.4812 85.2979 14.4812C84.8061 14.4812 84.3788 14.3818 84.0162 14.1831C83.6535 13.9844 83.348 13.7062 83.0996 13.3485C82.8562 12.9858 82.6599 12.566 82.5109 12.0891C82.3618 11.6122 82.2476 11.1005 82.1681 10.554V10.1442C82.2476 9.55793 82.3618 9.02139 82.5109 8.53453C82.6599 8.0427 82.8562 7.61794 83.0996 7.26024C83.348 6.89758 83.651 6.61689 84.0087 6.41817C84.3714 6.21945 84.7962 6.12009 85.283 6.12009C85.7947 6.12009 86.2443 6.21697 86.6318 6.41072C87.0243 6.60447 87.3522 6.88268 87.6155 7.24534C87.8837 7.608 88.085 8.04021 88.2191 8.54198C88.3582 9.04375 88.4277 9.60016 88.4277 10.2112ZM86.2741 10.3677V10.2112C86.2741 9.86843 86.2443 9.55296 86.1847 9.26482C86.1301 8.97171 86.0406 8.71586 85.9164 8.49727C85.7972 8.27868 85.6382 8.10977 85.4395 7.99053C85.2458 7.86634 85.0098 7.80424 84.7316 7.80424C84.4385 7.80424 84.1876 7.85143 83.9789 7.94582C83.7752 8.04021 83.6088 8.17683 83.4796 8.35568C83.3505 8.53453 83.2536 8.74815 83.189 8.99655C83.1244 9.24495 83.0847 9.52564 83.0698 9.83862V10.8744C83.0946 11.2421 83.1642 11.5724 83.2784 11.8656C83.3927 12.1537 83.5691 12.3822 83.8075 12.5511C84.046 12.72 84.359 12.8045 84.7465 12.8045C85.0296 12.8045 85.2681 12.7424 85.4619 12.6182C85.6556 12.489 85.8121 12.3127 85.9313 12.0891C86.0555 11.8656 86.1425 11.6072 86.1922 11.3141C86.2468 11.021 86.2741 10.7055 86.2741 10.3677ZM92.027 2.88594V14.3322H89.8734V2.88594H92.027ZM93.4578 10.3826V10.2261C93.4578 9.63493 93.5423 9.09094 93.7112 8.59414C93.8801 8.09238 94.126 7.65768 94.4489 7.29005C94.7718 6.92242 95.1693 6.63676 95.6412 6.43307C96.1132 6.22442 96.6547 6.12009 97.2658 6.12009C97.8768 6.12009 98.4208 6.22442 98.8977 6.43307C99.3747 6.63676 99.7746 6.92242 100.098 7.29005C100.425 7.65768 100.674 8.09238 100.843 8.59414C101.012 9.09094 101.096 9.63493 101.096 10.2261V10.3826C101.096 10.9688 101.012 11.5128 100.843 12.0146C100.674 12.5114 100.425 12.9461 100.098 13.3187C99.7746 13.6863 99.3772 13.972 98.9052 14.1757C98.4332 14.3793 97.8917 14.4812 97.2807 14.4812C96.6696 14.4812 96.1256 14.3793 95.6487 14.1757C95.1767 13.972 94.7768 13.6863 94.4489 13.3187C94.126 12.9461 93.8801 12.5114 93.7112 12.0146C93.5423 11.5128 93.4578 10.9688 93.4578 10.3826ZM95.604 10.2261V10.3826C95.604 10.7204 95.6338 11.0359 95.6934 11.329C95.753 11.6221 95.8474 11.8805 95.9766 12.104C96.1107 12.3226 96.2846 12.494 96.4982 12.6182C96.7118 12.7424 96.9727 12.8045 97.2807 12.8045C97.5787 12.8045 97.8346 12.7424 98.0482 12.6182C98.2618 12.494 98.4332 12.3226 98.5624 12.104C98.6916 11.8805 98.786 11.6221 98.8456 11.329C98.9102 11.0359 98.9425 10.7204 98.9425 10.3826V10.2261C98.9425 9.89824 98.9102 9.59022 98.8456 9.30208C98.786 9.00897 98.6891 8.75063 98.555 8.52708C98.4258 8.29855 98.2544 8.1197 98.0408 7.99053C97.8271 7.86137 97.5688 7.79678 97.2658 7.79678C96.9627 7.79678 96.7044 7.86137 96.4908 7.99053C96.2821 8.1197 96.1107 8.29855 95.9766 8.52708C95.8474 8.75063 95.753 9.00897 95.6934 9.30208C95.6338 9.59022 95.604 9.89824 95.604 10.2261ZM104.561 8.02779V14.3322H102.415V6.26913H104.435L104.561 8.02779ZM106.991 6.21697L106.953 8.20664C106.849 8.19174 106.722 8.17932 106.573 8.16938C106.429 8.15448 106.298 8.14703 106.178 8.14703C105.875 8.14703 105.612 8.18677 105.388 8.26626C105.17 8.34078 104.986 8.45256 104.837 8.6016C104.693 8.75063 104.584 8.93197 104.509 9.14559C104.44 9.35921 104.4 9.60264 104.39 9.87588L103.958 9.74175C103.958 9.22011 104.01 8.7407 104.114 8.30352C104.218 7.86137 104.37 7.47635 104.569 7.14846C104.772 6.82058 105.021 6.56721 105.314 6.38836C105.607 6.20952 105.942 6.12009 106.32 6.12009C106.439 6.12009 106.561 6.13003 106.685 6.1499C106.809 6.1648 106.911 6.18716 106.991 6.21697ZM111.566 14.4812C110.94 14.4812 110.379 14.3818 109.882 14.1831C109.385 13.9794 108.963 13.6987 108.615 13.341C108.272 12.9833 108.009 12.5685 107.825 12.0966C107.641 11.6196 107.549 11.1129 107.549 10.5764V10.2783C107.549 9.66723 107.636 9.10833 107.81 8.6016C107.984 8.09486 108.233 7.6552 108.555 7.2826C108.883 6.91 109.281 6.62434 109.748 6.42562C110.215 6.22194 110.741 6.12009 111.328 6.12009C111.899 6.12009 112.406 6.21448 112.848 6.40327C113.29 6.59205 113.66 6.86032 113.958 7.20808C114.261 7.55584 114.49 7.97315 114.644 8.46001C114.798 8.9419 114.875 9.47844 114.875 10.0696V10.9639H108.466V9.53309H112.766V9.36915C112.766 9.07107 112.711 8.80528 112.602 8.57179C112.498 8.33332 112.339 8.14454 112.125 8.00544C111.911 7.86634 111.638 7.79678 111.305 7.79678C111.022 7.79678 110.779 7.85888 110.575 7.98308C110.371 8.10728 110.205 8.28116 110.076 8.50472C109.951 8.72828 109.857 8.99158 109.793 9.29463C109.733 9.59271 109.703 9.92059 109.703 10.2783V10.5764C109.703 10.8993 109.748 11.1974 109.837 11.4706C109.932 11.7438 110.063 11.9798 110.232 12.1785C110.406 12.3773 110.615 12.5313 110.858 12.6406C111.107 12.7499 111.387 12.8045 111.7 12.8045C112.088 12.8045 112.448 12.73 112.781 12.5809C113.119 12.4269 113.409 12.1959 113.653 11.8879L114.696 13.0206C114.527 13.264 114.296 13.4975 114.003 13.7211C113.715 13.9447 113.367 14.1285 112.96 14.2725C112.552 14.4116 112.088 14.4812 111.566 14.4812ZM118.243 8.02779V14.3322H116.097V6.26913H118.116L118.243 8.02779ZM120.672 6.21697L120.635 8.20664C120.531 8.19174 120.404 8.17932 120.255 8.16938C120.111 8.15448 119.979 8.14703 119.86 8.14703C119.557 8.14703 119.294 8.18677 119.07 8.26626C118.852 8.34078 118.668 8.45256 118.519 8.6016C118.375 8.75063 118.265 8.93197 118.191 9.14559C118.121 9.35921 118.082 9.60264 118.072 9.87588L117.639 9.74175C117.639 9.22011 117.692 8.7407 117.796 8.30352C117.9 7.86137 118.052 7.47635 118.25 7.14846C118.454 6.82058 118.703 6.56721 118.996 6.38836C119.289 6.20952 119.624 6.12009 120.002 6.12009C120.121 6.12009 120.243 6.13003 120.367 6.1499C120.491 6.1648 120.593 6.18716 120.672 6.21697Z" fill="#4D585E"/>
<path d="M11.7637 0.667969L21.29 5.16797V14.168L11.7637 18.668L2.23739 14.168V5.16797L11.7637 0.667969Z" fill="#4D585E"/>
</svg>
