<svg width="279" height="26" viewBox="0 0 279 26" fill="none" xmlns="http://www.w3.org/2000/svg">
<path d="M71.2304 0L81.8881 6.15327V18.4598L71.2304 24.6131L60.5726 18.4598V6.15327L71.2304 0Z" fill="#065E7C"/>
<path d="M96.4868 20H93.4901V7.82721C93.4901 6.97987 93.6555 6.26686 93.9861 5.68819C94.3237 5.10263 94.7956 4.66174 95.4018 4.36551C96.0149 4.0624 96.7417 3.91084 97.5822 3.91084C97.8577 3.91084 98.123 3.93151 98.3778 3.97284C98.6327 4.00729 98.8807 4.05206 99.1219 4.10718L99.0909 6.34953C98.96 6.31509 98.8222 6.29098 98.6775 6.2772C98.5328 6.26342 98.3641 6.25653 98.1712 6.25653C97.8129 6.25653 97.5064 6.31853 97.2515 6.44253C97.0035 6.55964 96.8141 6.73531 96.6832 6.96954C96.5523 7.20376 96.4868 7.48965 96.4868 7.82721V20ZM98.7188 8.81922V10.9272H91.8264V8.81922H98.7188ZM99.8039 14.5233V14.3063C99.8039 13.4865 99.921 12.7322 100.155 12.0433C100.389 11.3475 100.73 10.7447 101.178 10.2349C101.626 9.72512 102.177 9.32901 102.832 9.04656C103.486 8.75722 104.237 8.61255 105.084 8.61255C105.932 8.61255 106.686 8.75722 107.347 9.04656C108.009 9.32901 108.563 9.72512 109.011 10.2349C109.466 10.7447 109.81 11.3475 110.044 12.0433C110.279 12.7322 110.396 13.4865 110.396 14.3063V14.5233C110.396 15.3362 110.279 16.0905 110.044 16.7863C109.81 17.4752 109.466 18.078 109.011 18.5947C108.563 19.1044 108.012 19.5006 107.358 19.783C106.703 20.0654 105.952 20.2067 105.105 20.2067C104.258 20.2067 103.503 20.0654 102.842 19.783C102.187 19.5006 101.633 19.1044 101.178 18.5947C100.73 18.078 100.389 17.4752 100.155 16.7863C99.921 16.0905 99.8039 15.3362 99.8039 14.5233ZM102.78 14.3063V14.5233C102.78 14.9917 102.821 15.4292 102.904 15.8356C102.987 16.2421 103.117 16.6003 103.297 16.9103C103.483 17.2134 103.724 17.4511 104.02 17.6233C104.316 17.7955 104.678 17.8816 105.105 17.8816C105.518 17.8816 105.873 17.7955 106.169 17.6233C106.465 17.4511 106.703 17.2134 106.882 16.9103C107.061 16.6003 107.192 16.2421 107.275 15.8356C107.364 15.4292 107.409 14.9917 107.409 14.5233V14.3063C107.409 13.8516 107.364 13.4245 107.275 13.0249C107.192 12.6185 107.058 12.2603 106.872 11.9503C106.693 11.6334 106.455 11.3854 106.159 11.2062C105.863 11.0271 105.504 10.9376 105.084 10.9376C104.664 10.9376 104.306 11.0271 104.01 11.2062C103.72 11.3854 103.483 11.6334 103.297 11.9503C103.117 12.2603 102.987 12.6185 102.904 13.0249C102.821 13.4245 102.78 13.8516 102.78 14.3063ZM111.749 14.5233V14.3063C111.749 13.4865 111.866 12.7322 112.101 12.0433C112.335 11.3475 112.676 10.7447 113.124 10.2349C113.571 9.72512 114.123 9.32901 114.777 9.04656C115.431 8.75722 116.182 8.61255 117.03 8.61255C117.877 8.61255 118.631 8.75722 119.293 9.04656C119.954 9.32901 120.509 9.72512 120.956 10.2349C121.411 10.7447 121.756 11.3475 121.99 12.0433C122.224 12.7322 122.341 13.4865 122.341 14.3063V14.5233C122.341 15.3362 122.224 16.0905 121.99 16.7863C121.756 17.4752 121.411 18.078 120.956 18.5947C120.509 19.1044 119.958 19.5006 119.303 19.783C118.649 20.0654 117.898 20.2067 117.05 20.2067C116.203 20.2067 115.449 20.0654 114.787 19.783C114.133 19.5006 113.578 19.1044 113.124 18.5947C112.676 18.078 112.335 17.4752 112.101 16.7863C111.866 16.0905 111.749 15.3362 111.749 14.5233ZM114.725 14.3063V14.5233C114.725 14.9917 114.767 15.4292 114.849 15.8356C114.932 16.2421 115.063 16.6003 115.242 16.9103C115.428 17.2134 115.669 17.4511 115.965 17.6233C116.262 17.7955 116.623 17.8816 117.05 17.8816C117.464 17.8816 117.818 17.7955 118.115 17.6233C118.411 17.4511 118.649 17.2134 118.828 16.9103C119.007 16.6003 119.138 16.2421 119.22 15.8356C119.31 15.4292 119.355 14.9917 119.355 14.5233V14.3063C119.355 13.8516 119.31 13.4245 119.22 13.0249C119.138 12.6185 119.003 12.2603 118.817 11.9503C118.638 11.6334 118.401 11.3854 118.104 11.2062C117.808 11.0271 117.45 10.9376 117.03 10.9376C116.609 10.9376 116.251 11.0271 115.955 11.2062C115.666 11.3854 115.428 11.6334 115.242 11.9503C115.063 12.2603 114.932 12.6185 114.849 13.0249C114.767 13.4245 114.725 13.8516 114.725 14.3063ZM130.773 17.5613V4.12784H133.77V20H131.073L130.773 17.5613ZM123.705 14.5439V14.3269C123.705 13.4727 123.802 12.6977 123.994 12.0019C124.187 11.2992 124.47 10.6965 124.842 10.1936C125.214 9.69068 125.672 9.30145 126.216 9.02589C126.76 8.75033 127.38 8.61255 128.076 8.61255C128.731 8.61255 129.302 8.75033 129.791 9.02589C130.287 9.30145 130.708 9.69412 131.052 10.2039C131.404 10.7068 131.686 11.3027 131.9 11.9916C132.113 12.6736 132.268 13.421 132.365 14.2339V14.7093C132.268 15.4877 132.113 16.2111 131.9 16.8793C131.686 17.5475 131.404 18.1331 131.052 18.636C130.708 19.132 130.287 19.5178 129.791 19.7933C129.295 20.0689 128.717 20.2067 128.055 20.2067C127.36 20.2067 126.74 20.0654 126.195 19.783C125.658 19.5006 125.203 19.1044 124.831 18.5947C124.466 18.0849 124.187 17.4855 123.994 16.7966C123.802 16.1077 123.705 15.3568 123.705 14.5439ZM126.681 14.3269V14.5439C126.681 15.0055 126.716 15.4361 126.784 15.8356C126.86 16.2352 126.981 16.59 127.146 16.9C127.318 17.2031 127.539 17.4408 127.807 17.613C128.083 17.7783 128.417 17.861 128.81 17.861C129.32 17.861 129.74 17.7473 130.07 17.52C130.401 17.2858 130.653 16.9654 130.825 16.559C131.004 16.1525 131.107 15.6841 131.135 15.1536V13.7999C131.114 13.3659 131.052 12.9767 130.949 12.6323C130.852 12.2809 130.708 11.9813 130.515 11.7333C130.329 11.4852 130.095 11.2924 129.812 11.1546C129.537 11.0168 129.209 10.9479 128.83 10.9479C128.445 10.9479 128.114 11.0375 127.838 11.2166C127.563 11.3888 127.339 11.6265 127.167 11.9296C127.001 12.2327 126.877 12.5909 126.795 13.0043C126.719 13.4107 126.681 13.8516 126.681 14.3269ZM146.511 20.2067C145.643 20.2067 144.865 20.0689 144.176 19.7933C143.487 19.5109 142.901 19.1217 142.419 18.6257C141.944 18.1296 141.578 17.5544 141.324 16.9C141.069 16.2386 140.941 15.536 140.941 14.7919V14.3786C140.941 13.5313 141.062 12.7563 141.303 12.0536C141.544 11.3509 141.888 10.7412 142.336 10.2246C142.791 9.7079 143.342 9.31178 143.99 9.03622C144.637 8.75378 145.367 8.61255 146.18 8.61255C146.973 8.61255 147.675 8.74344 148.288 9.00522C148.901 9.267 149.415 9.63901 149.828 10.1212C150.248 10.6035 150.565 11.1821 150.779 11.8573C150.992 12.5255 151.099 13.2695 151.099 14.0893V15.3293H142.212V13.3453H148.175V13.1179C148.175 12.7046 148.099 12.336 147.947 12.0123C147.803 11.6816 147.582 11.4198 147.286 11.2269C146.99 11.034 146.611 10.9376 146.149 10.9376C145.757 10.9376 145.419 11.0237 145.137 11.1959C144.854 11.3681 144.623 11.6093 144.444 11.9193C144.272 12.2293 144.141 12.5944 144.052 13.0146C143.969 13.4279 143.928 13.8826 143.928 14.3786V14.7919C143.928 15.2397 143.99 15.6531 144.114 16.032C144.245 16.4109 144.427 16.7381 144.661 17.0136C144.902 17.2892 145.192 17.5028 145.529 17.6543C145.874 17.8059 146.263 17.8816 146.697 17.8816C147.234 17.8816 147.734 17.7783 148.195 17.5716C148.664 17.3581 149.067 17.0377 149.404 16.6106L150.851 18.1813C150.617 18.5189 150.296 18.8427 149.89 19.1527C149.49 19.4627 149.008 19.7176 148.443 19.9173C147.878 20.1102 147.234 20.2067 146.511 20.2067ZM155.191 8.81922L157.041 12.2189L158.942 8.81922H162.114L158.952 14.2856L162.259 20H159.076L157.061 16.404L155.046 20H151.864L155.17 14.2856L152.008 8.81922H155.191ZM166.537 10.9686V24.2987H163.561V8.81922H166.32L166.537 10.9686ZM173.616 14.2856V14.5026C173.616 15.3155 173.519 16.0698 173.326 16.7656C173.14 17.4614 172.865 18.0676 172.5 18.5843C172.134 19.0941 171.68 19.4937 171.136 19.783C170.598 20.0654 169.978 20.2067 169.276 20.2067C168.594 20.2067 168.001 20.0689 167.498 19.7933C166.995 19.5178 166.572 19.132 166.227 18.636C165.89 18.1331 165.618 17.551 165.411 16.8896C165.204 16.2283 165.046 15.5187 164.936 14.7609V14.1926C165.046 13.3797 165.204 12.6357 165.411 11.9606C165.618 11.2786 165.89 10.6896 166.227 10.1936C166.572 9.69068 166.992 9.30145 167.488 9.02589C167.991 8.75033 168.58 8.61255 169.255 8.61255C169.964 8.61255 170.588 8.74689 171.125 9.01556C171.669 9.28423 172.124 9.67001 172.489 10.1729C172.861 10.6758 173.14 11.2751 173.326 11.9709C173.519 12.6667 173.616 13.4383 173.616 14.2856ZM170.629 14.5026V14.2856C170.629 13.8103 170.588 13.3728 170.505 12.9733C170.429 12.5668 170.305 12.212 170.133 11.9089C169.968 11.6058 169.747 11.3716 169.472 11.2062C169.203 11.034 168.876 10.9479 168.49 10.9479C168.084 10.9479 167.736 11.0134 167.447 11.1442C167.164 11.2751 166.933 11.4646 166.754 11.7126C166.575 11.9606 166.441 12.2568 166.351 12.6013C166.262 12.9457 166.207 13.3349 166.186 13.7689V15.2053C166.22 15.7151 166.317 16.1732 166.475 16.5796C166.634 16.9792 166.878 17.2961 167.209 17.5303C167.54 17.7645 167.974 17.8816 168.511 17.8816C168.904 17.8816 169.234 17.7955 169.503 17.6233C169.772 17.4442 169.989 17.1996 170.154 16.8896C170.326 16.5796 170.447 16.2214 170.516 15.815C170.591 15.4085 170.629 14.9711 170.629 14.5026ZM178.607 4.12784V20H175.62V4.12784H178.607ZM180.591 14.5233V14.3063C180.591 13.4865 180.708 12.7322 180.942 12.0433C181.176 11.3475 181.517 10.7447 181.965 10.2349C182.413 9.72512 182.964 9.32901 183.618 9.04656C184.273 8.75722 185.024 8.61255 185.871 8.61255C186.718 8.61255 187.473 8.75722 188.134 9.04656C188.795 9.32901 189.35 9.72512 189.798 10.2349C190.252 10.7447 190.597 11.3475 190.831 12.0433C191.065 12.7322 191.182 13.4865 191.182 14.3063V14.5233C191.182 15.3362 191.065 16.0905 190.831 16.7863C190.597 17.4752 190.252 18.078 189.798 18.5947C189.35 19.1044 188.799 19.5006 188.144 19.783C187.49 20.0654 186.739 20.2067 185.892 20.2067C185.044 20.2067 184.29 20.0654 183.629 19.783C182.974 19.5006 182.42 19.1044 181.965 18.5947C181.517 18.078 181.176 17.4752 180.942 16.7863C180.708 16.0905 180.591 15.3362 180.591 14.5233ZM183.567 14.3063V14.5233C183.567 14.9917 183.608 15.4292 183.691 15.8356C183.773 16.2421 183.904 16.6003 184.083 16.9103C184.269 17.2134 184.51 17.4511 184.807 17.6233C185.103 17.7955 185.465 17.8816 185.892 17.8816C186.305 17.8816 186.66 17.7955 186.956 17.6233C187.252 17.4511 187.49 17.2134 187.669 16.9103C187.848 16.6003 187.979 16.2421 188.062 15.8356C188.151 15.4292 188.196 14.9917 188.196 14.5233V14.3063C188.196 13.8516 188.151 13.4245 188.062 13.0249C187.979 12.6185 187.845 12.2603 187.659 11.9503C187.48 11.6334 187.242 11.3854 186.946 11.2062C186.649 11.0271 186.291 10.9376 185.871 10.9376C185.451 10.9376 185.093 11.0271 184.796 11.2062C184.507 11.3854 184.269 11.6334 184.083 11.9503C183.904 12.2603 183.773 12.6185 183.691 13.0249C183.608 13.4245 183.567 13.8516 183.567 14.3063ZM195.987 11.2579V20H193.011V8.81922H195.812L195.987 11.2579ZM199.356 8.74689L199.305 11.5059C199.16 11.4852 198.984 11.468 198.778 11.4542C198.578 11.4336 198.395 11.4232 198.23 11.4232C197.81 11.4232 197.444 11.4784 197.134 11.5886C196.831 11.6919 196.576 11.8469 196.37 12.0536C196.17 12.2603 196.018 12.5117 195.915 12.8079C195.819 13.1042 195.764 13.4417 195.75 13.8206L195.15 13.6346C195.15 12.9113 195.223 12.2465 195.367 11.6403C195.512 11.0271 195.722 10.4932 195.998 10.0386C196.28 9.5839 196.625 9.23256 197.031 8.98456C197.438 8.73656 197.903 8.61255 198.426 8.61255C198.592 8.61255 198.76 8.62633 198.933 8.65389C199.105 8.67455 199.246 8.70555 199.356 8.74689ZM205.701 20.2067C204.833 20.2067 204.054 20.0689 203.366 19.7933C202.677 19.5109 202.091 19.1217 201.609 18.6257C201.134 18.1296 200.768 17.5544 200.514 16.9C200.259 16.2386 200.131 15.536 200.131 14.7919V14.3786C200.131 13.5313 200.252 12.7563 200.493 12.0536C200.734 11.3509 201.078 10.7412 201.526 10.2246C201.981 9.7079 202.532 9.31178 203.18 9.03622C203.827 8.75378 204.557 8.61255 205.37 8.61255C206.162 8.61255 206.865 8.74344 207.478 9.00522C208.091 9.267 208.605 9.63901 209.018 10.1212C209.438 10.6035 209.755 11.1821 209.969 11.8573C210.182 12.5255 210.289 13.2695 210.289 14.0893V15.3293H201.402V13.3453H207.365V13.1179C207.365 12.7046 207.289 12.336 207.137 12.0123C206.993 11.6816 206.772 11.4198 206.476 11.2269C206.18 11.034 205.801 10.9376 205.339 10.9376C204.947 10.9376 204.609 11.0237 204.327 11.1959C204.044 11.3681 203.813 11.6093 203.634 11.9193C203.462 12.2293 203.331 12.5944 203.242 13.0146C203.159 13.4279 203.118 13.8826 203.118 14.3786V14.7919C203.118 15.2397 203.18 15.6531 203.304 16.032C203.434 16.4109 203.617 16.7381 203.851 17.0136C204.092 17.2892 204.382 17.5028 204.719 17.6543C205.064 17.8059 205.453 17.8816 205.887 17.8816C206.424 17.8816 206.924 17.7783 207.385 17.5716C207.854 17.3581 208.257 17.0377 208.594 16.6106L210.041 18.1813C209.807 18.5189 209.486 18.8427 209.08 19.1527C208.68 19.4627 208.198 19.7176 207.633 19.9173C207.068 20.1102 206.424 20.2067 205.701 20.2067ZM214.96 11.2579V20H211.984V8.81922H214.784L214.96 11.2579ZM218.328 8.74689L218.277 11.5059C218.132 11.4852 217.956 11.468 217.75 11.4542C217.55 11.4336 217.367 11.4232 217.202 11.4232C216.782 11.4232 216.417 11.4784 216.107 11.5886C215.804 11.6919 215.549 11.8469 215.342 12.0536C215.142 12.2603 214.991 12.5117 214.887 12.8079C214.791 13.1042 214.736 13.4417 214.722 13.8206L214.123 13.6346C214.123 12.9113 214.195 12.2465 214.34 11.6403C214.484 11.0271 214.694 10.4932 214.97 10.0386C215.252 9.5839 215.597 9.23256 216.003 8.98456C216.41 8.73656 216.875 8.61255 217.398 8.61255C217.564 8.61255 217.732 8.62633 217.905 8.65389C218.077 8.67455 218.218 8.70555 218.328 8.74689Z" fill="white"/>
</svg>
